HIERARCHY
ROOT hip
{
	OFFSET 0.000000 0.000000 0.000000 
	CHANNELS 6 Xposition Yposition Zposition Xrotation Zrotation Yrotation
	JOINT abdomen
	{
		OFFSET 0.000000 3.402643 0.000000 
		CHANNELS 3 Xrotation Zrotation Yrotation
		JOINT chest
		{
			OFFSET 0.000000 8.438565 -0.680529 
			CHANNELS 3 Xrotation Zrotation Yrotation
			JOINT neck
			{
				OFFSET 0.000000 10.207942 -0.272212 
				CHANNELS 3 Xrotation Zrotation Yrotation
				JOINT head
				{
					OFFSET 0.000000 3.130431 0.000000 
					CHANNELS 3 Xrotation Zrotation Yrotation
					End Site
					{
						OFFSET 0.000000 3.130435 0.000000 
					}
				}
			}
			JOINT lCollar
			{
				OFFSET 3.470700 6.669187 -0.816635 
				CHANNELS 3 Yrotation Zrotation Xrotation
				JOINT lShldr
				{
					OFFSET 3.198488 0.000000 0.000000 
					CHANNELS 3 Zrotation Yrotation Xrotation
					JOINT lForeArm
					{
						OFFSET 10.139888 0.000000 0.000000 
						CHANNELS 3 Yrotation Zrotation Xrotation
						JOINT lHand
						{
							OFFSET 8.370511 0.000000 0.000000 
							CHANNELS 3 Zrotation Yrotation Xrotation
							End Site
							{
								OFFSET 4.083176 0.000000 0.000000 
							}
						}
					}
				}
			}
			JOINT rCollar
			{
				OFFSET -3.470700 6.669187 -0.816635 
				CHANNELS 3 Yrotation Zrotation Xrotation
				JOINT rShldr
				{
					OFFSET -3.198488 0.000000 0.000000 
					CHANNELS 3 Zrotation Yrotation Xrotation
					JOINT rForeArm
					{
						OFFSET -10.139888 0.000000 0.000000 
						CHANNELS 3 Yrotation Zrotation Xrotation
						JOINT rHand
						{
							OFFSET -8.370511 0.000000 0.000000 
							CHANNELS 3 Zrotation Yrotation Xrotation
							End Site
							{
								OFFSET -4.083176 0.000000 0.000000 
							}
						}
					}
				}
			}
		}
	}
	JOINT lThigh
	{
		OFFSET 5.308129 -1.633274 1.361059 
		CHANNELS 3 Xrotation Zrotation Yrotation
		JOINT lShin
		{
			OFFSET -2.041588 -20.007561 0.000000 
			CHANNELS 3 Xrotation Zrotation Yrotation
			JOINT lFoot
			{
				OFFSET 0.000000 -19.190928 -1.224953 
				CHANNELS 3 Xrotation Yrotation Zrotation
				End Site
				{
					OFFSET 0.000000 -2.449906 4.627600 
				}
			}
		}
	}
	JOINT rThigh
	{
		OFFSET -5.308129 -1.633274 1.361059 
		CHANNELS 3 Xrotation Zrotation Yrotation
		JOINT rShin
		{
			OFFSET 2.041588 -20.007561 0.000000 
			CHANNELS 3 Xrotation Zrotation Yrotation
			JOINT rFoot
			{
				OFFSET 0.000000 -19.190928 -1.224953 
				CHANNELS 3 Xrotation Yrotation Zrotation
				End Site
				{
					OFFSET 0.000000 -2.449906 4.627600 
				}
			}
		}
	}
}
MOTION
Frames: 15
Frame Time: 0.011111
-36.178623 53.523232 5.113658 -0.744574 -10.616299 83.723106 4.910326 4.534464 7.606954 -20.180428 -3.651569 1.883480 -14.940089 -7.731473 1.290398 54.334045 10.674016 8.912493 -13.725516 -13.189672 -3.762996 -55.159981 -12.373634 59.637489 -87.023621 2.687315 32.451092 8.524705 12.647240 -13.557996 8.354301 9.292459 -1.514610 71.075546 6.515316 48.810848 86.477852 -1.697626 31.221495 -8.534408 -12.637552 60.843613 -5.057835 8.543004 4.828489 10.036273 -5.977808 -2.112467 -20.588369 3.078192 -1.589356 -8.171348 -4.520229 2.039194 12.342118 5.943815 2.444443 -19.566269 -1.464807 2.231073 
-36.143513 53.546535 5.131851 -0.771063 -10.859480 84.077141 4.203804 4.088828 8.188872 -20.257765 -4.460523 2.099507 -15.102434 -5.919224 -0.011058 56.839787 9.982376 7.134780 -13.725516 -13.189672 -3.762996 -54.001808 -11.813654 60.794197 -86.987366 2.633164 32.384964 8.524705 12.647240 -14.700574 8.354301 9.292459 -1.514610 71.693939 6.382380 48.506203 86.516808 -1.778916 31.353830 -8.534408 -12.637552 61.410011 -5.410052 8.593074 4.670297 10.143546 -5.987528 -2.142329 -20.596039 2.883777 -1.661417 -8.247238 -4.519072 1.909450 12.136535 5.943642 2.406449 -19.697975 -1.663943 2.168199 
-36.102657 53.567917 5.146853 -0.796931 -11.122125 84.414444 3.472383 3.654144 8.783516 -20.296041 -5.241214 2.324045 -15.365038 -4.180453 -1.320983 59.553955 9.430733 5.372393 -13.725516 -13.189672 -3.762996 -52.870754 -11.253544 61.950924 -86.953537 2.579401 32.338791 8.524705 12.647240 -15.882214 8.354301 9.292459 -1.514610 72.269211 6.213530 48.225670 86.563690 -1.878714 31.495003 -8.534408 -12.637552 62.074078 -5.751484 8.622160 4.481963 10.212034 -5.987458 -2.129025 -20.589802 2.714201 -1.696539 -8.344441 -4.528779 1.827971 11.961704 5.946673 2.361632 -19.769485 -1.856930 2.086917 
-36.064995 53.580368 5.164408 -0.854857 -11.239816 84.721802 2.907170 3.600380 8.451755 -19.893988 -5.403054 2.217457 -17.571762 -3.655628 -2.132749 66.253929 8.349649 4.469867 -13.725516 -13.189672 -3.762996 -52.621689 -11.213193 61.203522 -86.875435 2.451020 32.198261 8.524705 12.647240 -18.304090 8.354301 9.292459 -1.514610 70.988548 6.571233 50.132549 86.649651 -2.045533 31.730165 -8.534408 -12.637552 63.499859 -5.903465 8.683335 4.274844 10.206947 -5.975301 -2.157441 -20.566376 2.641258 -1.752429 -8.303256 -4.527706 1.643375 11.782953 5.954881 2.346488 -19.774441 -1.971827 2.052483 
-36.053505 53.590584 5.200476 -0.949529 -11.222115 85.023369 2.456609 3.367952 6.741689 -18.696047 -2.798353 1.729144 -17.782465 -4.253256 -1.818438 65.656349 8.214774 4.504604 -13.725516 -13.189672 -3.762996 -54.838669 -12.226615 58.994152 -86.837471 2.385914 32.123196 8.524705 12.647240 -18.499399 8.354301 9.292459 -1.514610 66.517044 7.422318 54.166737 86.825134 -2.367904 32.104610 -8.534408 -12.637552 65.365097 -5.992965 8.793487 4.118721 10.358302 -5.987482 -2.161753 -20.790453 2.515436 -1.756892 -8.099902 -4.421030 1.590240 11.608529 5.953184 2.330459 -19.832249 -2.186826 1.980127 
-36.062759 53.602070 5.235905 -1.027302 -11.144963 85.290642 2.445826 4.604263 4.481092 -18.032539 -2.123383 1.003532 -16.426636 -1.981025 -1.848883 59.104469 0.807652 -0.414125 -13.725516 -13.189672 -3.762996 -56.657757 -12.650386 55.625324 -86.834038 2.376765 32.123425 8.524705 12.647240 -18.724012 8.354301 9.292459 -1.514610 64.310425 7.504910 57.397209 86.840645 -2.395799 32.132713 -8.534408 -12.637552 65.492050 -6.111912 8.884295 3.952150 10.617128 -5.965631 -2.203511 -21.202402 2.348851 -1.783231 -7.884673 -4.303595 1.684917 11.454101 5.953880 2.326128 -19.891230 -2.497077 1.862170 
-36.074890 53.609409 5.261758 -1.080653 -11.057570 85.469566 2.492665 4.457728 4.106743 -17.212742 -1.751109 0.887818 -16.668667 -1.972043 -1.988939 58.155121 2.039155 -0.257742 -13.725516 -13.189672 -3.762996 -56.747868 -13.439510 55.214146 -86.827141 2.367319 32.104595 8.524705 12.647240 -18.684950 8.354301 9.292459 -1.514610 63.922798 8.021333 57.673454 86.852859 -2.414476 32.161053 -8.534408 -12.637552 65.599464 -6.100472 8.940139 3.844527 10.767537 -5.977233 -2.207830 -21.283453 2.297174 -1.768630 -7.687948 -4.224934 1.838451 11.333396 5.954571 2.286438 -19.991219 -2.730476 1.765903 
-36.054783 53.619629 5.284102 -1.143241 -10.958174 85.897499 2.441278 4.340263 3.507246 -16.637150 -1.397283 0.718653 -16.617985 -1.944902 -2.110209 57.010799 3.325072 -0.022944 -13.725516 -13.189672 -3.762996 -56.902508 -13.852716 54.785732 -86.832031 2.377358 32.123436 8.524705 12.647240 -18.890028 8.354301 9.292459 -1.514610 63.537693 8.390234 57.994030 86.857101 -2.424041 32.170570 -8.534408 -12.637552 65.902199 -6.042757 8.970829 3.609679 10.789025 -5.978277 -2.219390 -20.952127 2.277695 -1.830693 -7.334861 -4.204300 1.880622 11.041848 5.962751 2.250881 -20.186022 -3.080596 1.631124 
-36.039459 53.617710 5.286337 -1.177115 -11.076765 85.873657 2.142107 4.285458 3.325027 -15.866190 -1.120602 0.674138 -16.597071 -2.102901 -2.267351 55.618599 4.892241 0.126990 -13.725516 -13.189672 -3.762996 -57.048973 -14.464432 54.359100 -86.831955 2.376720 32.113693 8.524705 12.647240 -19.231823 8.354301 9.292459 -1.514610 63.105465 8.949891 58.388187 86.852180 -2.414681 32.161053 -8.534408 -12.637552 66.605324 -6.128513 8.996655 3.382842 10.678474 -5.976635 -2.199853 -20.807636 2.550928 -1.746282 -7.444964 -4.176599 1.925328 11.030474 5.964280 2.230664 -20.208904 -3.045973 1.640248 
-36.043293 53.619629 5.300380 -1.235569 -11.097964 85.911087 1.827752 4.194945 2.913811 -14.109523 -0.482805 0.556277 -17.122025 -2.396029 -2.502183 53.772720 6.353255 -0.220005 -13.725516 -13.189672 -3.762996 -57.295376 -16.109106 53.643764 -86.811134 2.339547 32.076511 8.524705 12.647240 -19.368542 8.354301 9.292459 -1.514610 62.235558 10.443930 58.997787 86.836533 -2.386850 32.133350 -8.534408 -12.637552 67.699074 -6.159718 9.068089 3.295209 10.649532 -5.967279 -2.215982 -20.806929 2.560639 -1.740354 -7.444038 -4.088332 1.983869 11.012767 5.955316 2.237923 -20.259975 -3.128710 1.611991 
-36.052547 53.622818 5.318574 -1.299658 -11.089767 85.972740 1.999018 4.047903 3.064103 -14.822079 -0.696418 0.608885 -16.670586 -2.771677 -2.819702 53.739231 8.989945 0.391927 -13.725516 -13.189672 -3.762996 -57.084103 -15.302547 53.994587 -86.833038 2.377062 32.123432 8.524705 12.647240 -19.427135 8.354301 9.292459 -1.514610 62.716442 9.614575 58.894413 86.847282 -2.405312 32.151955 -8.534408 -12.637552 67.904160 -6.179518 9.166208 3.355082 10.660960 -5.967791 -2.197407 -20.784063 2.464732 -1.776194 -7.425861 -3.981659 2.003653 11.030475 5.964277 2.230664 -20.263281 -3.193324 1.584593 
-36.040737 53.620266 5.346343 -1.362356 -11.070849 86.104881 2.091943 3.850841 3.168801 -15.476138 -0.839632 0.652527 -16.069538 -2.891641 -3.190887 53.104473 11.104204 0.581073 -13.725516 -13.189672 -3.762996 -56.874344 -14.476840 54.392307 -86.849998 2.404501 32.151524 8.524705 12.647240 -19.475965 8.354301 9.292459 -1.514610 63.197227 8.854497 58.453655 86.846870 -2.404775 32.142216 -8.534408 -12.637552 67.132675 -6.178664 9.252689 3.326381 10.649530 -5.967282 -2.215983 -20.776011 2.439175 -1.791813 -7.327264 -3.893193 1.987639 10.957321 5.954689 2.243303 -20.290243 -3.311246 1.535566 
-36.002113 53.621223 5.406669 -1.438788 -11.118911 86.373604 2.020164 3.575910 3.134832 -16.023064 -0.824395 0.671015 -15.509912 -3.185372 -3.512838 52.622719 13.337952 0.908548 -13.725516 -13.189672 -3.762996 -56.753273 -13.710675 54.780968 -86.850410 2.405037 32.161270 8.524705 12.647240 -19.466202 8.354301 9.292459 -1.514610 63.631756 8.147187 57.886414 86.836533 -2.386850 32.133350 -8.534408 -12.637552 65.882675 -6.218465 9.390651 3.327492 10.621871 -5.977799 -2.194623 -20.740078 2.219177 -1.858108 -7.135220 -3.777521 2.102559 10.686640 5.960782 2.219036 -20.379366 -3.651485 1.407541 
-36.020309 53.624096 5.427735 -1.459871 -11.138942 86.385361 2.172299 3.408532 3.309772 -16.765060 -0.966284 0.740227 -14.883278 -3.529507 -3.808405 51.966690 15.605437 1.248777 -13.725516 -13.189672 -3.762996 -56.637016 -12.955865 55.105438 -86.850342 2.404399 32.151524 8.524705 12.647240 -19.544321 8.354301 9.292459 -1.514610 64.057060 7.438715 57.583954 86.835785 -2.386411 32.123203 -8.534408 -12.637552 65.345558 -6.284502 9.455171 3.405544 10.649529 -5.967287 -2.215983 -20.722858 2.176721 -1.883800 -7.172093 -3.708431 2.218668 10.718817 5.964672 2.192731 -20.439941 -3.718805 1.375972 
-36.096912 53.622501 5.387837 -1.464498 -11.083869 86.116135 2.721570 3.412654 3.782017 -17.848467 -1.368196 0.875749 -14.187120 -3.763112 -4.121970 51.279179 17.682537 1.477939 -13.725516 -13.189672 -3.762996 -56.446335 -12.095585 55.545265 -86.865829 2.432250 32.179646 8.524705 12.647240 -19.554089 8.354301 9.292459 -1.514610 64.527969 6.687658 57.423988 86.840645 -2.395799 32.132713 -8.534408 -12.637552 65.374855 -6.314558 9.446687 3.405209 10.706641 -5.985965 -2.212950 -20.868370 2.371299 -1.809066 -7.376859 -3.698635 2.141741 11.012768 5.955312 2.237923 -20.346603 -3.427705 1.497793 
